<svg xmlns="http://www.w3.org/2000/svg" fill="none" viewBox="0 0 18 19" height="19" width="18">
<g clip-path="url(#clip0_7523_7750)" id="Capa_1">
<g id="Group">
<g id="Group_2">
<g id="Group_3">
<path fill="#878E95" d="M10.5117 8.58593C10.9 8.58593 11.2148 8.27114 11.2148 7.88281C11.2148 7.49449 10.9 7.17969 10.5117 7.17969C10.1234 7.17969 9.80856 7.49449 9.80856 7.88281C9.80856 8.27114 10.1234 8.58593 10.5117 8.58593Z" id="Vector"></path>
<path fill="#878E95" d="M10.5117 11.6445C10.9 11.6445 11.2148 11.3297 11.2148 10.9414C11.2148 10.5531 10.9 10.2383 10.5117 10.2383C10.1234 10.2383 9.80856 10.5531 9.80856 10.9414C9.80856 11.3297 10.1234 11.6445 10.5117 11.6445Z" id="Vector_2"></path>
<path fill="#878E95" d="M13.5703 8.58593C13.9586 8.58593 14.2734 8.27114 14.2734 7.88281C14.2734 7.49449 13.9586 7.17969 13.5703 7.17969C13.182 7.17969 12.8672 7.49449 12.8672 7.88281C12.8672 8.27114 13.182 8.58593 13.5703 8.58593Z" id="Vector_3"></path>
<path fill="#878E95" d="M17.2968 9.28905C17.6852 9.28905 18 8.97426 18 8.58592V4.71874C18 3.16793 16.7383 1.90625 15.1875 1.90625H14.2734V1.20312C14.2734 0.814788 13.9586 0.5 13.5703 0.5C13.182 0.5 12.8672 0.814788 12.8672 1.20312V1.90625H9.66795V1.20312C9.66795 0.814788 9.35316 0.5 8.96483 0.5C8.57649 0.5 8.2617 0.814788 8.2617 1.20312V1.90625H5.09765V1.20312C5.09765 0.814788 4.78286 0.5 4.39452 0.5C4.00619 0.5 3.6914 0.814788 3.6914 1.20312V1.90625H2.81249C1.26169 1.90625 0 3.16793 0 4.71874V15.6875C0 17.2383 1.26169 18.5 2.81249 18.5H11.6719C11.6958 18.5 11.7195 18.4987 11.7428 18.4964C11.7659 18.4987 11.7891 18.5 11.8123 18.5C11.9998 18.5 12.1838 18.4249 12.3189 18.2846L17.8033 12.5893C17.9989 12.3861 18.0542 12.0858 17.9439 11.8263C17.8335 11.5669 17.5788 11.3984 17.2968 11.3984H13.9218C12.371 11.3984 11.1094 12.6601 11.1094 14.2109V17.0937H2.81249C2.03709 17.0937 1.40625 16.4629 1.40625 15.6875V4.71874C1.40625 3.94334 2.03709 3.31249 2.81249 3.31249H3.6914V4.01562C3.6914 4.40395 4.00619 4.71874 4.39452 4.71874C4.78286 4.71874 5.09765 4.40395 5.09765 4.01562V3.31249H8.2617V4.01562C8.2617 4.40395 8.57649 4.71874 8.96483 4.71874C9.35316 4.71874 9.66795 4.40395 9.66795 4.01562V3.31249H12.8672V4.01562C12.8672 4.40395 13.182 4.71874 13.5703 4.71874C13.9586 4.71874 14.2734 4.40395 14.2734 4.01562V3.31249H15.1875C15.9629 3.31249 16.5937 3.94334 16.5937 4.71874V8.58592C16.5937 8.97426 16.9085 9.28905 17.2968 9.28905ZM12.5156 14.2109C12.5156 13.4355 13.1464 12.8047 13.9218 12.8047H15.6436L12.5156 16.053V14.2109Z" id="Vector_4"></path>
<path fill="#878E95" d="M4.39453 8.58593C4.78285 8.58593 5.09765 8.27114 5.09765 7.88281C5.09765 7.49449 4.78285 7.17969 4.39453 7.17969C4.00621 7.17969 3.69141 7.49449 3.69141 7.88281C3.69141 8.27114 4.00621 8.58593 4.39453 8.58593Z" id="Vector_5"></path>
<path fill="#878E95" d="M7.45312 11.6445C7.84145 11.6445 8.15625 11.3297 8.15625 10.9414C8.15625 10.5531 7.84145 10.2383 7.45312 10.2383C7.0648 10.2383 6.75 10.5531 6.75 10.9414C6.75 11.3297 7.0648 11.6445 7.45312 11.6445Z" id="Vector_6"></path>
<path fill="#878E95" d="M4.39453 14.7031C4.78285 14.7031 5.09765 14.3883 5.09765 14C5.09765 13.6117 4.78285 13.2969 4.39453 13.2969C4.00621 13.2969 3.69141 13.6117 3.69141 14C3.69141 14.3883 4.00621 14.7031 4.39453 14.7031Z" id="Vector_7"></path>
<path fill="#878E95" d="M4.39453 11.6445C4.78285 11.6445 5.09765 11.3297 5.09765 10.9414C5.09765 10.5531 4.78285 10.2383 4.39453 10.2383C4.00621 10.2383 3.69141 10.5531 3.69141 10.9414C3.69141 11.3297 4.00621 11.6445 4.39453 11.6445Z" id="Vector_8"></path>
<path fill="#878E95" d="M7.45312 14.7031C7.84145 14.7031 8.15625 14.3883 8.15625 14C8.15625 13.6117 7.84145 13.2969 7.45312 13.2969C7.0648 13.2969 6.75 13.6117 6.75 14C6.75 14.3883 7.0648 14.7031 7.45312 14.7031Z" id="Vector_9"></path>
<path fill="#878E95" d="M7.45312 8.58593C7.84145 8.58593 8.15625 8.27114 8.15625 7.88281C8.15625 7.49449 7.84145 7.17969 7.45312 7.17969C7.0648 7.17969 6.75 7.49449 6.75 7.88281C6.75 8.27114 7.0648 8.58593 7.45312 8.58593Z" id="Vector_10"></path>
</g>
</g>
</g>
</g>
<defs>
<clipPath id="clip0_7523_7750">
<rect transform="translate(0 0.5)" fill="white" height="18" width="18"></rect>
</clipPath>
</defs>
</svg>
