<svg xmlns="http://www.w3.org/2000/svg" fill="none" viewBox="0 0 90 18" height="18" width="90">
<g id="Group 16">
<path fill="#ED6F4E" d="M8.28671 2.19529C8.51122 1.50431 9.48878 1.50431 9.71329 2.19529L10.8522 5.70061C10.9526 6.00963 11.2406 6.21885 11.5655 6.21885H15.2512C15.9778 6.21885 16.2799 7.14856 15.6921 7.57561L12.7103 9.74202C12.4474 9.933 12.3374 10.2715 12.4378 10.5805L13.5768 14.0859C13.8013 14.7768 13.0104 15.3514 12.4226 14.9244L9.44084 12.758C9.17797 12.567 8.82203 12.567 8.55916 12.758L5.57736 14.9244C4.98957 15.3514 4.19871 14.7768 4.42322 14.0859L5.56217 10.5805C5.66258 10.2715 5.55259 9.933 5.28972 9.74202L2.30792 7.57561C1.72013 7.14856 2.02221 6.21885 2.74875 6.21885H6.43447C6.75939 6.21885 7.04735 6.00963 7.14776 5.70061L8.28671 2.19529Z" id="Star 1"></path>
<path fill="#ED6F4E" d="M26.2867 2.19529C26.5112 1.50431 27.4888 1.50431 27.7133 2.19529L28.8522 5.70061C28.9526 6.00963 29.2406 6.21885 29.5655 6.21885H33.2512C33.9778 6.21885 34.2799 7.14856 33.6921 7.57561L30.7103 9.74202C30.4474 9.933 30.3374 10.2715 30.4378 10.5805L31.5768 14.0859C31.8013 14.7768 31.0104 15.3514 30.4226 14.9244L27.4408 12.758C27.178 12.567 26.822 12.567 26.5592 12.758L23.5774 14.9244C22.9896 15.3514 22.1987 14.7768 22.4232 14.0859L23.5622 10.5805C23.6626 10.2715 23.5526 9.933 23.2897 9.74202L20.3079 7.57561C19.7201 7.14856 20.0222 6.21885 20.7488 6.21885H24.4345C24.7594 6.21885 25.0474 6.00963 25.1478 5.70061L26.2867 2.19529Z" id="Star 2"></path>
<path fill="#ED6F4E" d="M44.2867 2.19529C44.5112 1.50431 45.4888 1.50431 45.7133 2.19529L46.8522 5.70061C46.9526 6.00963 47.2406 6.21885 47.5655 6.21885H51.2512C51.9778 6.21885 52.2799 7.14856 51.6921 7.57561L48.7103 9.74202C48.4474 9.933 48.3374 10.2715 48.4378 10.5805L49.5768 14.0859C49.8013 14.7768 49.0104 15.3514 48.4226 14.9244L45.4408 12.758C45.178 12.567 44.822 12.567 44.5592 12.758L41.5774 14.9244C40.9896 15.3514 40.1987 14.7768 40.4232 14.0859L41.5622 10.5805C41.6626 10.2715 41.5526 9.933 41.2897 9.74202L38.3079 7.57561C37.7201 7.14856 38.0222 6.21885 38.7488 6.21885H42.4345C42.7594 6.21885 43.0474 6.00963 43.1478 5.70061L44.2867 2.19529Z" id="Star 3"></path>
<path fill="#ED6F4E" d="M62.2867 2.19529C62.5112 1.50431 63.4888 1.50431 63.7133 2.19529L64.8522 5.70061C64.9526 6.00963 65.2406 6.21885 65.5655 6.21885H69.2512C69.9778 6.21885 70.2799 7.14856 69.6921 7.57561L66.7103 9.74202C66.4474 9.933 66.3374 10.2715 66.4378 10.5805L67.5768 14.0859C67.8013 14.7768 67.0104 15.3514 66.4226 14.9244L63.4408 12.758C63.178 12.567 62.822 12.567 62.5592 12.758L59.5774 14.9244C58.9896 15.3514 58.1987 14.7768 58.4232 14.0859L59.5622 10.5805C59.6626 10.2715 59.5526 9.933 59.2897 9.74202L56.3079 7.57561C55.7201 7.14856 56.0222 6.21885 56.7488 6.21885H60.4345C60.7594 6.21885 61.0474 6.00963 61.1478 5.70061L62.2867 2.19529Z" id="Star 4"></path>
<path fill="#ED6F4E" d="M80.2867 2.19529C80.5112 1.50431 81.4888 1.50431 81.7133 2.19529L82.8522 5.70061C82.9526 6.00963 83.2406 6.21885 83.5655 6.21885H87.2512C87.9778 6.21885 88.2799 7.14856 87.6921 7.57561L84.7103 9.74202C84.4474 9.933 84.3374 10.2715 84.4378 10.5805L85.5768 14.0859C85.8013 14.7768 85.0104 15.3514 84.4226 14.9244L81.4408 12.758C81.178 12.567 80.822 12.567 80.5592 12.758L77.5774 14.9244C76.9896 15.3514 76.1987 14.7768 76.4232 14.0859L77.5622 10.5805C77.6626 10.2715 77.5526 9.933 77.2897 9.74202L74.3079 7.57561C73.7201 7.14856 74.0222 6.21885 74.7488 6.21885H78.4345C78.7594 6.21885 79.0474 6.00963 79.1478 5.70061L80.2867 2.19529Z" id="Star 5"></path>
</g>
</svg>
